<?xml version="1.0" encoding="UTF-8"?>
<!DOCTYPE svg PUBLIC "-//W3C//DTD SVG 1.1//EN" "http://www.w3.org/Graphics/SVG/1.1/DTD/svg11.dtd">
<!-- Creator: CorelDRAW -->
<svg xmlns="http://www.w3.org/2000/svg" xml:space="preserve" width="2048px" height="2048px" style="shape-rendering:geometricPrecision; text-rendering:geometricPrecision; image-rendering:optimizeQuality; fill-rule:evenodd; clip-rule:evenodd"
viewBox="0 0 2048 2048"
 xmlns:xlink="http://www.w3.org/1999/xlink">
 <defs>
  <style type="text/css">
   <![CDATA[
    .fil2 {fill:none}
    .fil7 {fill:#0D47A1}
    .fil10 {fill:#1565C0}
    .fil12 {fill:#263238}
    .fil1 {fill:#29B6F6}
    .fil0 {fill:#81D4FA}
    .fil9 {fill:#D9AE9A}
    .fil13 {fill:#DDB7A5}
    .fil8 {fill:#E3B8A4}
    .fil11 {fill:#EDC5B2}
    .fil6 {fill:#212121;fill-rule:nonzero}
    .fil5 {fill:#37474F;fill-rule:nonzero}
    .fil3 {fill:#6D4C41;fill-rule:nonzero}
    .fil4 {fill:#A1887F;fill-rule:nonzero}
   ]]>
  </style>
   <clipPath id="id0">
    <path d="M1024 0c565.539,0 1024,458.461 1024,1024 0,565.539 -458.461,1024 -1024,1024 -565.539,0 -1024,-458.461 -1024,-1024 0,-565.539 458.461,-1024 1024,-1024z"/>
   </clipPath>
 </defs>
 <g id="Layer_x0020_1">
  <metadata id="CorelCorpID_0Corel-Layer"/>
  <path class="fil0" d="M1024 0c565.539,0 1024,458.461 1024,1024 0,565.539 -458.461,1024 -1024,1024 -565.539,0 -1024,-458.461 -1024,-1024 0,-565.539 458.461,-1024 1024,-1024z"/>
  <g style="clip-path:url(#id0)">
   <g id="_341217520">
    <g>
     <polygon id="_3333096001" class="fil1" points="1580.98,511.593 2716.86,1647.47 2717.63,1648.49 2718.29,1649.58 2718.84,1650.74 2719.29,1651.95 2719.61,1653.22 2719.81,1654.54 2719.88,1655.89 1584,520.008 1583.93,518.653 1583.73,517.339 1583.41,516.07 1582.96,514.855 1582.41,513.7 1581.74,512.609 "/>
     <polygon id="_333309576" class="fil1" points="1584,520.008 2719.88,1655.89 2719.81,1657.24 2719.61,1658.56 2719.29,1659.83 2718.84,1661.04 2718.29,1662.2 2717.63,1663.29 2716.86,1664.3 2716.01,1665.24 2715.07,1666.09 2714.05,1666.85 2712.96,1667.51 2711.81,1668.07 2710.59,1668.51 2709.32,1668.84 2708.01,1669.04 2706.65,1669.11 1570.77,533.224 1572.13,533.156 1573.44,532.956 1574.71,532.632 1575.92,532.189 1577.08,531.632 1578.17,530.972 1579.19,530.213 1580.13,529.36 1580.98,528.422 1581.74,527.405 1582.41,526.315 1582.96,525.16 1583.41,523.944 1583.73,522.676 1583.93,521.363 "/>
     <polygon id="_333310320" class="fil1" points="1570.77,533.224 2706.65,1669.11 2619.73,1669.11 1483.84,533.224 "/>
     <polygon id="_333310080" class="fil1" points="1483.84,533.224 2619.73,1669.11 2596.81,1706.17 1460.93,570.283 "/>
     <polygon id="_333310152" class="fil1" points="1380.26,878.424 2516.14,2014.31 2469.14,2014.31 1333.26,878.424 "/>
     <polygon id="_333310032" class="fil1" points="1333.26,878.424 2469.14,2014.31 2451.07,2014.31 1315.19,878.424 "/>
     <polygon id="_333310488" class="fil1" points="1315.19,878.424 2451.07,2014.31 2340.4,2014.31 1204.52,878.424 "/>
     <polygon id="_333310800" class="fil1" points="1382.15,956.788 2518.03,2092.67 2494.04,2092.67 1358.16,956.788 "/>
     <polygon id="_333311136" class="fil1" points="1204.52,878.424 2340.4,2014.31 2322.45,2014.31 1186.57,878.424 "/>
     <polygon id="_333311280" class="fil1" points="1186.57,878.424 2322.45,2014.31 2211.67,2014.31 1075.78,878.424 "/>
     <polygon id="_333311016" class="fil1" points="1075.78,878.424 2211.67,2014.31 2193.72,2014.31 1057.84,878.424 "/>
     <polygon id="_333310896" class="fil1" points="1057.84,878.424 2193.72,2014.31 2141.4,2014.31 1005.52,878.425 "/>
     <polygon id="_333311208" class="fil1" points="1296.59,956.788 2432.47,2092.67 2244.68,2092.67 1108.8,956.788 "/>
     <polygon id="_333310680" class="fil1" points="1112.05,959.742 2247.93,2095.62 2249.51,2097.28 2251.01,2099.01 2252.43,2100.82 2253.76,2102.69 2255.01,2104.64 2256.16,2106.65 2257.22,2108.72 2258.19,2110.85 2259.05,2113.03 2259.81,2115.27 2260.46,2117.55 2261,2119.88 2261.43,2122.26 2261.73,2124.67 2261.92,2127.13 2261.98,2129.61 1126.1,993.728 1126.04,991.243 1125.85,988.792 1125.54,986.377 1125.12,984.002 1124.58,981.67 1123.93,979.385 1123.17,977.148 1122.31,974.963 1121.34,972.833 1120.28,970.763 1119.13,968.754 1117.88,966.81 1116.54,964.933 1115.12,963.128 1113.62,961.397 "/>
     <polygon id="_333311400" class="fil1" points="1047.14,956.788 2183.03,2092.67 2137.85,2092.67 1001.97,956.788 "/>
     <polygon id="_333310848" class="fil1" points="1001.97,956.788 2137.85,2092.67 2136.5,2092.6 2135.18,2092.4 2133.91,2092.08 2132.7,2091.63 2131.54,2091.08 2130.45,2090.42 2129.43,2089.66 2128.49,2088.81 992.613,952.924 993.552,953.775 994.569,954.536 995.659,955.196 996.817,955.752 998.032,956.195 999.302,956.52 1000.62,956.72 "/>
     <polygon id="_333311352" class="fil1" points="1077.91,1041.76 2213.79,2177.64 2211.33,2177.58 2208.89,2177.4 2206.49,2177.1 2204.13,2176.68 2201.8,2176.14 2199.52,2175.5 2197.29,2174.75 2195.1,2173.9 2192.97,2172.94 2190.9,2171.88 2188.88,2170.73 2186.92,2169.48 2185.03,2168.14 2183.21,2166.71 2181.46,2165.2 2179.78,2163.6 1043.9,1027.72 1045.58,1029.31 1047.33,1030.83 1049.15,1032.26 1051.04,1033.6 1053,1034.84 1055.01,1036 1057.09,1037.06 1059.22,1038.01 1061.41,1038.87 1063.64,1039.62 1065.92,1040.26 1068.25,1040.8 1070.61,1041.21 1073.01,1041.52 1075.45,1041.7 "/>
     <polygon id="_333311760" class="fil1" points="1005.52,878.425 2141.4,2014.31 2139.49,2014.26 2137.61,2014.12 2135.77,2013.88 2133.97,2013.56 2132.2,2013.15 2130.47,2012.65 2128.78,2012.07 2127.13,2011.42 2125.53,2010.68 2123.96,2009.87 2122.44,2008.99 2120.97,2008.04 2119.54,2007.01 2118.15,2005.93 2116.82,2004.78 2115.53,2003.57 979.648,867.686 980.936,868.895 982.272,870.044 983.656,871.131 985.086,872.153 986.561,873.106 988.083,873.988 989.646,874.798 991.253,875.534 992.902,876.192 994.591,876.77 996.318,877.266 998.085,877.677 999.889,878 1001.73,878.235 1003.61,878.377 "/>
     <polygon id="_333311880" class="fil1" points="1112.05,1027.72 2247.93,2163.6 2246.25,2165.2 2244.5,2166.71 2242.68,2168.14 2240.78,2169.48 2238.82,2170.73 2236.8,2171.88 2234.72,2172.94 2232.59,2173.9 2230.4,2174.75 2228.15,2175.5 2225.86,2176.14 2223.53,2176.68 2221.15,2177.1 2218.73,2177.4 2216.28,2177.58 2213.79,2177.64 1077.91,1041.76 1080.4,1041.7 1082.85,1041.52 1085.27,1041.21 1087.64,1040.8 1089.98,1040.26 1092.27,1039.62 1094.51,1038.87 1096.71,1038.01 1098.84,1037.06 1100.92,1036 1102.94,1034.84 1104.9,1033.6 1106.79,1032.26 1108.62,1030.83 1110.37,1029.31 "/>
     <polygon id="_333312024" class="fil1" points="1460.93,570.283 2596.81,1706.17 2531.26,2081.69 1395.38,945.812 "/>
     <polygon id="_333312072" class="fil1" points="1395.38,945.812 2531.26,2081.69 2530.99,2082.89 2530.62,2084.04 2530.15,2085.13 2529.59,2086.16 2528.96,2087.14 2528.24,2088.05 2527.45,2088.89 2526.6,2089.66 2525.68,2090.35 2524.71,2090.96 2523.69,2091.48 2522.62,2091.92 2521.52,2092.26 2520.38,2092.5 2519.22,2092.64 2518.03,2092.67 1382.15,956.788 1383.34,956.755 1384.5,956.617 1385.64,956.375 1386.74,956.036 1387.81,955.602 1388.83,955.079 1389.8,954.47 1390.72,953.779 1391.57,953.011 1392.36,952.169 1393.07,951.258 1393.71,950.283 1394.27,949.246 1394.74,948.153 1395.11,947.006 "/>
     <polygon id="_333311568" class="fil1" points="1362.97,961.397 2498.85,2097.28 2500.37,2099.01 2501.8,2100.82 2503.15,2102.69 2504.41,2104.64 2505.57,2106.65 2506.64,2108.72 2507.61,2110.85 2508.48,2113.03 2509.24,2115.27 2509.89,2117.55 2510.44,2119.88 2510.86,2122.26 2511.17,2124.67 2511.36,2127.13 2511.42,2129.61 1375.54,993.728 1375.48,991.243 1375.29,988.792 1374.98,986.377 1374.55,984.002 1374.01,981.67 1373.36,979.385 1372.6,977.148 1371.73,974.963 1370.76,972.833 1369.69,970.763 1368.53,968.754 1367.27,966.81 1365.92,964.933 1364.49,963.128 "/>
     <polygon id="_333311472" class="fil1" points="1361.37,1027.72 2497.25,2163.6 2495.59,2165.2 2493.86,2166.71 2492.05,2168.14 2490.17,2169.48 2488.23,2170.73 2486.22,2171.88 2484.14,2172.94 2482.01,2173.9 2479.82,2174.75 2477.59,2175.5 2475.3,2176.14 2472.96,2176.68 2470.59,2177.1 2468.17,2177.4 2465.72,2177.58 2463.23,2177.64 1327.35,1041.76 1329.84,1041.7 1332.29,1041.52 1334.71,1041.21 1337.08,1040.8 1339.42,1040.26 1341.7,1039.62 1343.94,1038.87 1346.13,1038.01 1348.26,1037.06 1350.33,1036 1352.35,1034.84 1354.29,1033.6 1356.17,1032.26 1357.98,1030.83 1359.71,1029.31 "/>
     <polygon id="_333311712" class="fil1" points="1293.34,1027.72 2429.22,2163.6 2427.62,2161.92 1291.74,1026.04 "/>
     <polygon id="_333312120" class="fil1" points="1327.35,1041.76 2463.23,2177.64 2460.76,2177.58 2458.33,2177.4 2455.93,2177.1 2453.57,2176.68 2451.24,2176.14 2448.96,2175.5 2446.73,2174.75 2444.54,2173.9 2442.41,2172.94 2440.33,2171.88 2438.32,2170.73 2436.36,2169.48 2434.47,2168.14 2432.65,2166.71 2430.9,2165.2 2429.22,2163.6 1293.34,1027.72 1295.01,1029.31 1296.77,1030.83 1298.59,1032.26 1300.48,1033.6 1302.44,1034.84 1304.45,1036 1306.53,1037.06 1308.66,1038.01 1310.85,1038.87 1313.08,1039.62 1315.36,1040.26 1317.69,1040.8 1320.05,1041.21 1322.45,1041.52 1324.88,1041.7 "/>
     <polygon id="_333311520" class="fil1" points="1375.54,993.728 2511.42,2129.61 2511.36,2132.07 2511.17,2134.51 2510.86,2136.91 2510.44,2139.27 2509.89,2141.59 2509.24,2143.87 2508.48,2146.1 2507.61,2148.29 2506.64,2150.42 2505.57,2152.49 2504.41,2154.51 2503.15,2156.46 2501.8,2158.35 2500.37,2160.17 2498.85,2161.92 2497.25,2163.6 1361.37,1027.72 1362.97,1026.04 1364.49,1024.29 1365.92,1022.47 1367.27,1020.58 1368.53,1018.63 1369.69,1016.61 1370.76,1014.53 1371.73,1012.4 1372.6,1010.22 1373.36,1007.99 1374.01,1005.71 1374.55,1003.39 1374.98,1001.02 1375.29,998.625 1375.48,996.192 "/>
     <polygon id="_333311688" class="fil1" points="1126.1,993.728 2261.98,2129.61 2261.92,2132.07 2261.73,2134.51 2261.42,2136.91 2261,2139.27 2260.46,2141.59 2259.81,2143.87 2259.05,2146.1 2258.19,2148.29 2257.22,2150.42 2256.16,2152.49 2255.01,2154.51 2253.76,2156.46 2252.43,2158.35 2251.01,2160.17 2249.5,2161.92 2247.93,2163.6 1112.05,1027.72 1113.62,1026.04 1115.12,1024.29 1116.54,1022.47 1117.88,1020.58 1119.13,1018.63 1120.28,1016.61 1121.34,1014.53 1122.31,1012.4 1123.17,1010.22 1123.93,1007.99 1124.58,1005.71 1125.12,1003.39 1125.54,1001.02 1125.85,998.625 1126.04,996.192 "/>
     <polygon id="_333312552" class="fil1" points="901.373,1133.49 2037.25,2269.37 2035.43,2273.82 2033.54,2278.27 2031.58,2282.74 2029.54,2287.2 2027.44,2291.67 2025.26,2296.13 2023.02,2300.58 2020.71,2305.01 2018.32,2309.42 2015.87,2313.81 2013.36,2318.17 2010.77,2322.49 2008.12,2326.77 2005.4,2331.01 2002.61,2335.21 1999.76,2339.34 1996.84,2343.42 1993.85,2347.44 1990.8,2351.39 1987.69,2355.27 1984.51,2359.07 1981.26,2362.79 1977.95,2366.43 1974.58,2369.97 1971.14,2373.42 1967.64,2376.76 1964.08,2380 1960.46,2383.14 1956.77,2386.15 1953.02,2389.05 1949.21,2391.83 1945.34,2394.47 809.458,1258.59 813.33,1255.95 817.139,1253.17 820.888,1250.27 824.574,1247.25 828.199,1244.12 831.761,1240.88 835.261,1237.53 838.697,1234.09 842.07,1230.54 845.379,1226.91 848.624,1223.19 851.805,1219.39 854.92,1215.51 857.971,1211.56 860.957,1207.54 863.875,1203.46 866.729,1199.32 869.516,1195.13 872.236,1190.89 874.889,1186.61 877.476,1182.28 879.993,1177.93 882.444,1173.54 884.825,1169.13 887.137,1164.69 889.381,1160.24 891.555,1155.79 893.659,1151.32 895.694,1146.85 897.657,1142.39 899.551,1137.93 "/>
     <polygon id="_333312888" class="fil1" points="983.664,1380.94 2119.55,2516.82 2120.53,2517.74 2121.51,2518.72 2122.47,2519.78 2123.42,2520.89 2124.36,2522.08 2125.29,2523.32 2126.2,2524.63 2127.1,2526 2128,2527.43 2128.88,2528.92 2129.75,2530.47 2130.61,2532.07 2131.46,2533.73 2132.3,2535.44 2133.13,2537.2 2133.96,2539.01 998.075,1403.13 997.253,1401.32 996.422,1399.56 995.581,1397.85 994.73,1396.19 993.869,1394.59 992.998,1393.04 992.116,1391.55 991.223,1390.12 990.32,1388.75 989.404,1387.44 988.477,1386.19 987.539,1385.01 986.589,1383.89 985.627,1382.84 984.652,1381.86 "/>
     <path id="_333312768" class="fil1" d="M2133.95 2539.01l0 0zm-1135.88 -1135.88l0 0z"/>
     <polygon id="_333312408" class="fil1" points="687.338,1258.56 1823.22,2394.44 1819.36,2391.79 1815.55,2389.02 1811.81,2386.11 1808.13,2383.09 1804.51,2379.96 668.627,1244.08 672.247,1247.21 675.929,1250.23 679.672,1253.13 683.475,1255.91 "/>
     <polygon id="_333312576" class="fil1" points="595.491,1133.36 1731.37,2269.25 1730.25,2271.1 1729.11,2272.67 1727.97,2273.97 1726.82,2275.01 1725.67,2275.78 1724.52,2276.3 1723.38,2276.57 1722.24,2276.6 1721.11,2276.4 1720,2275.98 1718.9,2275.33 1717.82,2274.47 581.944,1138.59 583.021,1139.45 584.118,1140.1 585.232,1140.52 586.359,1140.72 587.496,1140.69 588.641,1140.42 589.79,1139.9 590.94,1139.13 592.088,1138.09 593.232,1136.79 594.367,1135.22 "/>
     <polygon id="_333312696" class="fil1" points="1032.79,1541.21 2168.67,2677.09 1599.88,2677.09 463.999,1541.21 "/>
     <polygon id="_333312312" class="fil1" points="873.24,898.758 2009.12,2034.64 2011.85,2037.41 2014.51,2040.25 2017.11,2043.14 2019.65,2046.09 2022.11,2049.1 2024.52,2052.16 2026.86,2055.29 2029.13,2058.46 2031.34,2061.7 2033.48,2064.99 2035.55,2068.33 2037.55,2071.73 2039.49,2075.18 2041.36,2078.68 2043.15,2082.23 2044.88,2085.84 2046.54,2089.5 2048.13,2093.21 2049.65,2096.97 2051.1,2100.78 915.214,964.894 913.768,961.085 912.25,957.327 910.661,953.618 909.002,949.959 907.273,946.352 905.475,942.797 903.608,939.294 901.672,935.844 899.668,932.447 897.595,929.103 895.456,925.815 893.25,922.581 890.977,919.403 888.638,916.281 886.234,913.216 883.764,910.208 881.229,907.257 878.631,904.366 875.968,901.533 "/>
     <polygon id="_333312936" class="fil1" points="915.214,964.894 2051.1,2100.78 2051.63,2102.19 2052.15,2103.6 2052.65,2105.01 2053.15,2106.43 2053.64,2107.85 2054.11,2109.27 2054.57,2110.69 2055.01,2112.11 2055.45,2113.53 2055.87,2114.95 2056.28,2116.37 2056.68,2117.79 2057.06,2119.21 2057.43,2120.63 2057.79,2122.06 2058.13,2123.47 922.248,987.592 921.905,986.173 921.55,984.752 921.18,983.331 920.798,981.909 920.401,980.487 919.992,979.066 919.569,977.644 919.133,976.223 918.686,974.804 918.226,973.384 917.754,971.965 917.268,970.548 916.772,969.132 916.264,967.717 915.745,966.304 "/>
     <polygon id="_333312456" class="fil1" points="922.248,987.592 2058.13,2123.47 2058.34,2124.63 2058.54,2125.83 2058.74,2127.07 2058.94,2128.35 2059.12,2129.65 2059.3,2131 2059.48,2132.37 2059.64,2133.76 2059.8,2135.19 2059.96,2136.63 2060.1,2138.09 2060.24,2139.57 2060.37,2141.07 2060.49,2142.58 2060.6,2144.09 2060.71,2145.62 2060.8,2147.15 2060.89,2148.68 2060.97,2150.21 2061.04,2151.74 2061.1,2153.26 2061.15,2154.78 2061.19,2156.28 2061.22,2157.78 2061.24,2159.26 2061.25,2160.72 2061.25,2162.16 2061.24,2163.58 2061.21,2164.98 2061.18,2166.35 2061.14,2167.69 2061.08,2168.99 925.201,1033.11 925.256,1031.8 925.3,1030.47 925.333,1029.1 925.355,1027.7 925.366,1026.28 925.366,1024.84 925.357,1023.38 925.337,1021.9 925.306,1020.4 925.266,1018.9 925.215,1017.38 925.156,1015.86 925.086,1014.33 925.008,1012.79 924.921,1011.26 924.825,1009.73 924.72,1008.21 924.608,1006.69 924.486,1005.19 924.357,1003.69 924.22,1002.21 924.075,1000.75 923.923,999.303 923.763,997.881 923.597,996.484 923.423,995.114 923.244,993.772 923.057,992.463 922.863,991.188 922.664,989.95 922.459,988.75 "/>
     <polygon id="_333312720" class="fil1" points="927.323,1033.95 2063.2,2169.83 2063.75,2170.37 2064.22,2171.02 2064.62,2171.8 2064.95,2172.69 2065.22,2173.7 2065.43,2174.81 2065.59,2176.03 2065.7,2177.35 2065.76,2178.78 2065.77,2180.29 2065.75,2181.91 2065.7,2183.6 2065.61,2185.39 2065.5,2187.26 2065.37,2189.21 2065.22,2191.23 2065.05,2193.33 2064.88,2195.5 2064.7,2197.73 2064.51,2200.02 2064.33,2202.38 2064.16,2204.79 2063.99,2207.25 2063.84,2209.77 2063.71,2212.33 2063.6,2214.93 2063.52,2217.57 2063.47,2220.25 2063.45,2222.96 2063.4,2226.97 2063.27,2230.86 2063.06,2234.61 2062.78,2238.23 2062.41,2241.71 2061.98,2245.05 2061.48,2248.25 2060.91,2251.29 2060.29,2254.18 2059.6,2256.92 2058.87,2259.49 2058.08,2261.9 2057.25,2264.14 2056.37,2266.21 2055.46,2268.1 2054.51,2269.81 2053.52,2271.33 2052.51,2272.67 2051.47,2273.81 2050.41,2274.76 2049.33,2275.51 2048.24,2276.05 2047.14,2276.38 2046.02,2276.5 2044.91,2276.41 2043.79,2276.09 2042.67,2275.56 2041.56,2274.79 2040.46,2273.79 904.581,1137.91 905.681,1138.91 906.791,1139.67 907.907,1140.21 909.024,1140.53 910.142,1140.62 911.255,1140.5 912.36,1140.17 913.453,1139.62 914.532,1138.88 915.591,1137.93 916.629,1136.79 917.643,1135.45 918.626,1133.93 919.577,1132.22 920.493,1130.33 921.368,1128.26 922.201,1126.02 922.987,1123.61 923.723,1121.04 924.406,1118.3 925.032,1115.41 925.596,1112.36 926.098,1109.17 926.532,1105.83 926.894,1102.35 927.183,1098.73 927.393,1094.97 927.522,1091.09 927.565,1087.08 927.584,1084.37 927.637,1081.69 927.72,1079.05 927.83,1076.45 927.962,1073.89 928.112,1071.37 928.277,1068.91 928.452,1066.5 928.633,1064.14 928.816,1061.85 928.998,1059.61 929.173,1057.45 929.338,1055.35 929.489,1053.33 929.623,1051.38 929.733,1049.51 929.818,1047.72 929.872,1046.02 929.893,1044.41 929.874,1042.89 929.814,1041.47 929.708,1040.15 929.551,1038.93 929.339,1037.82 929.069,1036.81 928.737,1035.92 928.338,1035.14 927.868,1034.48 "/>
     <polygon id="_333313728" class="fil1" points="809.458,1258.59 1945.34,2394.47 1945.34,2421.19 809.458,1285.3 "/>
     <polygon id="_333313584" class="fil1" points="858.825,1306.47 1994.71,2442.36 1994.01,2443.32 858.128,1307.44 "/>
     <polygon id="_333313032" class="fil1" points="998.075,1403.13 2133.96,2539.01 2135.31,2542.21 2136.64,2545.52 2137.94,2548.95 2139.22,2552.5 2140.47,2556.14 2141.7,2559.89 2142.9,2563.74 2144.09,2567.68 2145.25,2571.7 2146.39,2575.81 2147.51,2579.99 2148.62,2584.25 2149.71,2588.57 2150.78,2592.96 2151.84,2597.4 2152.89,2601.89 2153.92,2606.44 2154.94,2611.03 2155.95,2615.65 2156.96,2620.31 2157.95,2625 2158.94,2629.71 2159.92,2634.45 2160.9,2639.19 2161.87,2643.95 2162.84,2648.71 2163.81,2653.47 2164.78,2658.22 2165.75,2662.97 2166.72,2667.7 2167.7,2672.41 2168.67,2677.09 1032.79,1541.21 1031.82,1536.52 1030.84,1531.81 1029.87,1527.08 1028.9,1522.34 1027.93,1517.58 1026.96,1512.82 1025.99,1508.06 1025.02,1503.31 1024.04,1498.56 1023.06,1493.83 1022.07,1489.12 1021.08,1484.43 1020.07,1479.77 1019.06,1475.14 1018.04,1470.56 1017,1466.01 1015.96,1461.52 1014.9,1457.07 1013.83,1452.69 1012.74,1448.36 1011.63,1444.11 1010.51,1439.92 1009.37,1435.82 1008.2,1431.79 1007.02,1427.86 1005.82,1424.01 1004.59,1420.26 1003.34,1416.61 1002.06,1413.07 1000.76,1409.64 999.432,1406.33 "/>
    </g>
    <path id="_341217616" class="fil1" d="M1476.52 506.789l94.2497 0c7.31812,0 13.2307,5.90079 13.2307,13.2189 0,7.31693 -5.9126,13.2165 -13.2307,13.2165l-86.9257 0 -22.9134 37.0583 -65.5501 375.529c-1.17992,6.49252 -6.85158,11.0929 -13.2307,10.976l-23.9929 0c1.11378,0.938977 2.1874,1.91693 3.21142,2.95394 8.73898,8.61142 14.1709,20.6492 14.1697,33.9862 0,13.2165 -5.43071,25.2555 -14.1697,33.9898 -8.6256,8.73072 -20.6717,14.0433 -34.0205,14.0433 -13.2213,0 -25.2721,-5.3126 -34.011,-14.0433 -8.73898,-8.73426 -14.0575,-20.7732 -14.0575,-33.9898 0,-13.337 5.31969,-25.3748 14.0575,-33.9862 1.03228,-1.03701 2.12362,-2.01496 3.24803,-2.95394l-187.788 0c1.12441,0.938977 2.21693,1.91693 3.24803,2.95394 8.62087,8.61142 14.0575,20.6492 14.0563,33.9862 0,13.2165 -5.43544,25.2555 -14.0563,33.9898 -8.73898,8.73072 -20.7898,14.0433 -34.1339,14.0433 -13.226,0 -25.2721,-5.3126 -34.0122,-14.0433 -8.62442,-8.73426 -14.0563,-20.7732 -14.0563,-33.9898 0,-13.337 5.43189,-25.3748 14.0563,-33.9862 1.03228,-1.03701 2.12362,-2.01496 3.24567,-2.95394l-45.1725 0c-7.32284,0 -13.226,-5.89961 -13.2272,-13.2189 0,-7.31339 5.90434,-13.2177 13.2272,-13.2177l369.198 0 9.09331 -51.9272 -47.0067 0 -18.0673 0 -110.669 0 -17.9492 0 -110.786 0 -17.9457 0 -52.3229 0.0011811c-10.2768,0 -19.1339,-4.13032 -25.8673,-10.7398 -6.49725,-6.60945 -10.7445,-15.8138 -11.8099,-25.8461l-6.5693 -67.6713 -0.400394 -3.02126 0.105118 0 -12.7417 -131.235c-0.11811,-1.41496 -0.11811,-2.47795 -0.11811,-3.18662 0,-9.55867 4.13386,-18.1748 10.6311,-24.665 6.13937,-6.0189 14.5288,-10.0299 23.504,-10.9736 1.53307,-0.119291 2.71654,-0.119291 3.66024,-0.119291l71.9292 0 17.9457 0 110.786 0 17.9492 0 110.669 0 18.0673 0 95.4284 0 6.37914 -36.939c0.239764,-1.88858 0.948426,-3.77835 2.00669,-5.43071l27.6402 -44.4933c2.12362,-4.36536 6.61064,-7.31575 11.8099,-7.31575zm-478.454 896.343l0 0zm-139.938 -95.6894c84.8162,40.0666 112.824,62.302 125.536,73.5001 5.30079,4.6937 10.0536,12.385 14.4106,22.1894 14.6351,33.4122 24.2705,88.2426 34.7185,138.078l-568.795 0c5.43308,-25.7823 10.741,-53.4119 16.6406,-78.5882 6.74882,-28.9134 17.1579,-68.0067 32.6091,-81.6792 12.5516,-11.1484 41.3197,-33.7122 125.483,-73.5768l-0.646063 -0.891733 49.2532 -21.2587 0 -26.6587c-41.5335,-27.5315 -72.8351,-77.9115 -91.8473,-125.193 -11.9209,21.3036 -26.2595,-6.43229 -26.2595,-46.2815 0,-28.7398 -6.29056,-52.5154 2.17441,-53.915l0.133465 -6.57756 0.852757 -20.524c2.09173,-20.7012 7.77993,-40.3536 16.4315,-58.3406 3.87638,-8.01379 8.31733,-15.7465 13.3382,-23.0988 52.5792,-77.0008 154.81,-99.1725 233.557,-54.3201 37.1776,21.1748 64.4434,53.7024 79.4953,94.5887 2.86063,7.51772 5.24646,15.1276 7.03347,22.6984 2.28071,12.1181 3.60709,31.7528 2.95276,45.5197 8.93387,0.855119 2.36457,24.8799 2.36457,53.9693 0,43.4209 -15.1075,66.026 -26.1921,46.4079 -19.0559,47.3138 -50.2985,97.5768 -91.9146,125.101l0 26.713 49.3666 21.1701 -0.696851 0.968505z"/>
   </g>
  </g>
  <path class="fil2" d="M1024 0c565.539,0 1024,458.461 1024,1024 0,565.539 -458.461,1024 -1024,1024 -565.539,0 -1024,-458.461 -1024,-1024 0,-565.539 458.461,-1024 1024,-1024z"/>
  <path class="fil3" d="M1570.75 506.361c7.31693,0 13.2484,5.93268 13.2484,13.2496 0,7.31693 -5.9315,13.2484 -13.2484,13.2484l-86.8831 0 -22.9512 37.0111 -65.5193 375.854 -13.0417 -2.2252 13.0524 2.2748c-1.13268,6.49489 -6.81615,11.0539 -13.2036,10.9736l-380.255 0c-7.31693,0 -13.2496,-5.9315 -13.2496,-13.2484 0,-7.31693 5.93268,-13.2496 13.2496,-13.2496l369.286 0 9.06497 -51.9993 -374.735 0c-10.3122,0 -19.2118,-4.11378 -25.8567,-10.7599 -6.59646,-6.59646 -10.8473,-15.7677 -11.8181,-25.7776l-19.624 -202.133c-0.133465,-1.37126 -0.198425,-2.43425 -0.198425,-3.19252 0,-9.60946 4.13977,-18.228 10.6488,-24.626 6.163,-6.05552 14.5854,-10.1102 23.5866,-10.9831 1.49882,-0.144095 2.72008,-0.219685 3.6378,-0.219685l442.766 0 6.43938 -36.9378c0.217323,-1.87559 0.840946,-3.73583 1.90276,-5.44725l0.0425197 0.0259843 27.626 -44.5489c2.1815,-4.32402 6.66142,-7.28977 11.8347,-7.28977l94.1977 0z"/>
  <path class="fil4" d="M1315.24 770.88l-110.705 0 0 -56.0185 110.705 0 0 56.0185zm-239.404 0l0 -56.0185 110.705 0 0 56.0185 -110.705 0zm-17.9941 -170.321l0 94.506 -103.859 0 2.66103 19.7965 101.198 0 0 56.0185 -97.004 0 2.57953 19.7953 94.4245 0 0 87.5753 17.9941 0 0 -87.5753 110.705 0 0 87.5753 17.9941 0 0 -87.5753 110.705 0 0 87.5753 17.9941 0 0 -87.5753 69.1182 0 4.07717 -19.7953 -73.1953 0 0 -56.0185 75.8434 0 4.20591 -19.7965 -80.0493 0 0 -94.506 -17.9941 0 0 94.506 -110.705 0 0 -94.506 -17.9941 0 0 94.506 -110.705 0 0 -94.506 -17.9941 0z"/>
  <path class="fil5" d="M1327.41 945.509c-13.2874,0 -25.3193,5.38819 -34.0288,14.0976 -8.70946,8.70946 -14.0965,20.7402 -14.0965,34.0288 0,13.2874 5.38701,25.3193 14.0965,34.0288 8.70946,8.70827 20.7414,14.0965 34.0288,14.0965 13.2874,0 25.3193,-5.38819 34.0288,-14.0965 8.70946,-8.70946 14.0965,-20.7414 14.0965,-34.0288 0,-13.2886 -5.38701,-25.3193 -14.0965,-34.0288 -8.70827,-8.70946 -20.7402,-14.0976 -34.0288,-14.0976z"/>
  <path class="fil5" d="M1077.98 945.509c-13.2874,0 -25.3193,5.38819 -34.0288,14.0976 -8.70946,8.70946 -14.0965,20.7402 -14.0965,34.0288 0,13.2874 5.38701,25.3193 14.0965,34.0288 8.70946,8.70827 20.7414,14.0965 34.0288,14.0965 13.2874,0 25.3193,-5.38819 34.0288,-14.0965 8.70946,-8.70946 14.0965,-20.7414 14.0965,-34.0288 0,-13.2886 -5.38701,-25.3193 -14.0965,-34.0288 -8.70827,-8.70946 -20.7402,-14.0976 -34.0288,-14.0976z"/>
  <path class="fil6" d="M1077.98 970.828c-6.29646,0 -11.9976,2.55355 -16.1256,6.68032 -4.12677,4.12796 -6.68032,9.82914 -6.68032,16.1256 0,6.29764 2.55355,11.9988 6.68032,16.1268 4.12677,4.12677 9.82914,6.67914 16.1256,6.67914 6.29764,0 11.9988,-2.55236 16.1256,-6.67914 4.12796,-4.12796 6.68032,-9.82914 6.68032,-16.1268 0,-6.29646 -2.55236,-11.9976 -6.68032,-16.1256 -4.12677,-4.12677 -9.82796,-6.68032 -16.1256,-6.68032z"/>
  <path class="fil6" d="M1327.41 970.828c-6.29646,0 -11.9988,2.55355 -16.1256,6.68032 -4.12796,4.12796 -6.68032,9.82914 -6.68032,16.1256 0,6.29764 2.55236,11.9988 6.68032,16.1268 4.12677,4.12677 9.82914,6.67914 16.1256,6.67914 6.29646,0 11.9988,-2.55236 16.1256,-6.67914 4.12677,-4.12796 6.68032,-9.82914 6.68032,-16.1268 0,-6.29646 -2.55355,-11.9976 -6.68032,-16.1256 -4.12677,-4.12677 -9.82914,-6.68032 -16.1256,-6.68032z"/>
  <path class="fil7" d="M691.563 1283.51c-125.718,55.115 -163.426,84.4985 -178.332,97.6891 -22.9725,20.328 -35.6788,96.1016 -49.2319,160.44l284.433 0 284.424 0c-13.5496,-64.3382 -26.2559,-140.114 -49.2272,-160.44 -14.9079,-13.1906 -51.2398,-41.8181 -176.953,-96.9331l-115.113 -0.755906z"/>
  <path class="fil8" d="M809.468 1173.65l0 139.354c-17.0752,21.4524 -39.4122,34.5189 -61.0359,35.537 -23.0528,1.08662 -45.3532,-11.3173 -61.0453,-35.537l0 -139.354c0,-75.2434 122.081,-75.2434 122.081,0z"/>
  <path class="fil9" d="M809.468 1173.65l0 93.2989c-23.0953,16.8366 -45.3638,26.2689 -61.0359,26.2689 -15.678,0 -37.95,-9.43229 -61.0453,-26.2666l0 -93.3013c0,-75.2434 122.081,-75.2434 122.081,0z"/>
  <polygon class="fil10" points="687.31,1285.38 638.021,1306.7 700.803,1393.72 748.432,1348.54 "/>
  <polygon class="fil10" points="809.468,1285.47 858.837,1306.7 796.057,1393.72 748.432,1348.54 "/>
  <path class="fil10" d="M498.802 1403.37c-14.4673,32.589 -24.3862,88.806 -34.8036,138.272l115.466 0c-2.58189,-80.6989 -2.72835,-123.623 -80.6623,-138.272z"/>
  <path class="fil10" d="M998.052 1403.37c14.4662,32.589 24.3862,88.806 34.8036,138.272l-115.468 0c2.58307,-80.6989 2.72953,-123.623 80.6646,-138.272z"/>
  <path class="fil2" d="M651.697 1366.66c-0.211417,-0.0200788 -0.422835,-0.046063 -0.634252,-0.0708662"/>
  <path class="fil11" d="M748.427 847.143c48.8681,0 93.1123,19.8095 125.138,51.8351 32.0256,32.0268 51.8363,76.2697 51.8363,125.138 0,51.4843 -22.6488,121.926 -58.4457,174.969 -30.9744,45.8953 -72.2174,79.5579 -118.528,79.5579 -46.3111,0 -87.5552,-33.6626 -118.528,-79.5579 -35.7969,-53.0422 -58.4445,-123.484 -58.4445,-174.969 0,-48.8681 19.8083,-93.1111 51.8351,-125.138 32.0268,-32.0256 76.2697,-51.8351 125.138,-51.8351z"/>
  <path class="fil12" d="M615.226 1014.71c32.0103,-2.88071 42.6863,-1.7504 80.3008,-43.7587 44.7355,33.5173 117.526,43.7611 175.524,27.4323 5.67993,-1.59921 19.0725,23.3457 24.0095,68.6587 39.8492,-5.75079 28.9831,-66.9119 27.2032,-79.5379 -7.67835,-32.4378 -25.9016,-65.7331 -48.6981,-88.5296 -26.1555,-26.1544 -60.4619,-44.1626 -98.7804,-49.8863 -8.59843,-1.28386 -17.4,-1.94882 -26.3575,-1.94882 -48.8681,0 -93.1111,19.8095 -125.138,51.8351 -29.4591,29.4603 -48.5811,69.2552 -51.4583,113.478l-1.4563 69.0438c9.79017,-13.3665 12.4973,-58.8768 35.1898,6.7252 8.10355,-16.3228 -1.34173,-69.3792 9.66142,-73.5119z"/>
  <path class="fil13" d="M572.147 1032.99c9.66497,0 32.0835,24.4347 32.0835,54.0638 0,29.6292 -7.83426,53.6481 -17.4992,53.6481 -9.66497,0 -17.5004,-24.0189 -17.5004,-53.6481 0,-29.6292 -6.74882,-54.0638 2.91614,-54.0638z"/>
  <path class="fil13" d="M924.709 1032.99c-9.66615,0 -32.0847,24.4347 -32.0847,54.0638 0,29.6292 7.83426,53.6481 17.5004,53.6481 9.66379,0 17.5004,-24.0189 17.5004,-53.6481 0,-29.6292 6.74764,-54.0638 -2.91614,-54.0638z"/>
 </g>
</svg>
